<svg xmlns="http://www.w3.org/2000/svg" xmlns:xlink="http://www.w3.org/1999/xlink" version="1.1" xml:space="preserve" class="u-svg-content" viewBox="0 0 160 48" x="0px" y="0px" id="svg-b06d" style="fill: orange; color: orange;"><path d="M80,9.6c7.6,0,14.1,6.6,14.1,14.4S87.6,38.4,80,38.4S65.9,31.8,65.9,24S72.4,9.6,80,9.6 M80,0C67.1,0,56.5,10.8,56.5,24
	S67.1,48,80,48s23.5-10.8,23.5-24S92.9,0,80,0L80,0z M136.5,9.6c7.6,0,14.1,6.6,14.1,14.4s-6.5,14.4-14.1,14.4s-14.1-6.6-14.1-14.4
	S128.8,9.6,136.5,9.6 M136.5,0c-12.9,0-23.5,10.8-23.5,24s10.6,24,23.5,24c12.9,0,23.5-10.8,23.5-24S149.4,0,136.5,0L136.5,0z
	 M23.5,9.6c7.6,0,14.1,6.6,14.1,14.4s-6.5,14.4-14.1,14.4S9.4,31.8,9.4,24S15.9,9.6,23.5,9.6 M23.5,0C10.6,0,0,10.8,0,24
	s10.6,24,23.5,24s23.5-10.8,23.5-24S36.4,0,23.5,0L23.5,0z"></path></svg>