<svg xmlns="http://www.w3.org/2000/svg" xmlns:xlink="http://www.w3.org/1999/xlink" version="1.1" xml:space="preserve" class="u-svg-content" viewBox="0 0 160 160" x="0px" y="0px" id="svg-c824" style="fill: orange; color: orange; enable-background:new 0 0 160 160;"><path d="M0,153.3L153.3,0h6.7L0,160V153.3z M129.6,0h6.7L0,136.3v-6.7L129.6,0z M105.6,0h6.7L0,112.3v-6.7L105.6,0z M81.6,0h6.7
	L0,88.3v-6.7L81.6,0z M57.6,0h6.7L0,64.3v-6.7L57.6,0z M33.3,0H40L0,40v-6.7L33.3,0z M9.6,0h6.7L0,16.3V9.6L9.6,0z M18.9,160
	L160,18.9v6.7L25.6,160H18.9z M44.5,160L160,44.5v6.7L51.2,160H44.5z M70.2,160L160,70.2V77l-83,83H70.2z M95.8,160L160,95.8v6.7
	L102.6,160H95.8z M121.8,160l38.2-38.2v6.7L128.5,160H121.8z M147.4,160l12.6-12.6v6.7l-5.9,5.9L147.4,160L147.4,160z"></path></svg>